<svg width="37" height="33" viewBox="0 0 37 33" fill="none" xmlns="http://www.w3.org/2000/svg">
<path d="M19 14.25C13.375 14.25 5.5 22.8984 5.5 28.3828C5.5 30.8438 7.32812 32.25 10.4922 32.25C13.9375 32.25 16.1875 30.4922 19 30.4922C21.7422 30.4922 23.9922 32.25 27.4375 32.25C30.6016 32.25 32.5 30.8438 32.5 28.3828C32.5 22.8984 24.5547 14.25 19 14.25ZM8.59375 13.4062C7.89062 10.9453 5.64062 9.39844 3.60156 9.89062C1.5625 10.3828 0.4375 12.7031 1.21094 15.1641C1.91406 17.625 4.16406 19.1719 6.20312 18.6797C8.24219 18.1875 9.36719 15.8672 8.59375 13.4062ZM14.5703 11.9297C16.75 11.3672 17.8047 8.41406 17.0312 5.39062C16.1875 2.29688 13.7266 0.328125 11.5469 0.890625C9.36719 1.45312 8.3125 4.40625 9.08594 7.42969C9.92969 10.5234 12.3906 12.4922 14.5703 11.9297ZM34.3281 9.89062C32.2891 9.39844 30.0391 10.9453 29.3359 13.4062C28.5625 15.8672 29.6875 18.1875 31.7266 18.6797C33.7656 19.1719 36.0156 17.625 36.7188 15.1641C37.4922 12.7031 36.3672 10.3828 34.3281 9.89062ZM23.3594 11.9297C25.5391 12.4922 28 10.5234 28.8438 7.42969C29.6172 4.40625 28.5625 1.45312 26.3828 0.890625C24.2031 0.328125 21.7422 2.29688 20.8984 5.39062C20.125 8.41406 21.1797 11.3672 23.3594 11.9297Z" fill="white"/>
</svg>
